<?xml version="1.0" standalone="no"?>
<!DOCTYPE svg PUBLIC "-//W3C//DTD SVG 20010904//EN"
 "http://www.w3.org/TR/2001/REC-SVG-20010904/DTD/svg10.dtd">
<svg version="1.0" xmlns="http://www.w3.org/2000/svg"
 width="533.000000pt" height="533.000000pt" viewBox="0 0 533.000000 533.000000"
 preserveAspectRatio="xMidYMid meet">
<metadata>
Created by potrace 1.11, written by Peter Selinger 2001-2013
</metadata>
<g transform="translate(0.000000,533.000000) scale(0.100000,-0.100000)"
fill="#000000" stroke="none">
<path d="M2944 4258 c-2 -4 -27 -7 -55 -6 -27 0 -55 -4 -62 -10 -7 -5 -20 -8
-29 -7 -10 2 -20 -1 -24 -6 -3 -5 -18 -9 -33 -9 -15 0 -31 -3 -35 -7 -4 -5
-11 -8 -14 -9 -39 -6 -71 -18 -67 -24 3 -4 -13 -10 -35 -14 -22 -3 -40 -10
-40 -15 0 -5 -11 -12 -25 -15 -14 -4 -34 -15 -45 -26 -11 -11 -23 -21 -27 -21
-29 -5 -67 -32 -135 -94 -15 -14 -30 -25 -34 -25 -11 0 -94 -82 -94 -92 0 -4
-16 -25 -35 -45 -19 -20 -35 -40 -35 -44 0 -3 -10 -17 -22 -30 -21 -22 -31
-24 -122 -25 -55 0 -101 -5 -103 -10 -2 -5 -23 -8 -48 -6 -25 2 -45 0 -45 -6
0 -9 -51 -22 -92 -23 -10 0 -18 -4 -18 -10 0 -5 -7 -9 -15 -9 -17 0 -87 -32
-96 -43 -3 -5 -10 -9 -15 -9 -19 -1 -40 -12 -56 -31 -10 -11 -18 -17 -18 -14
0 7 -57 -30 -84 -54 -9 -8 -36 -30 -60 -49 -24 -19 -53 -49 -66 -67 -12 -18
-35 -46 -51 -63 -16 -16 -26 -30 -22 -30 3 0 -4 -11 -17 -25 -13 -14 -20 -25
-16 -25 4 0 -2 -13 -13 -29 -11 -15 -18 -31 -14 -35 3 -3 2 -6 -4 -6 -6 0 -14
-10 -18 -22 -4 -13 -8 -25 -9 -28 -1 -3 -7 -15 -14 -28 -7 -12 -10 -27 -7 -32
3 -6 1 -10 -4 -10 -6 0 -11 -9 -11 -20 0 -25 -25 -37 -73 -35 -21 1 -40 -2
-43 -7 -3 -4 -18 -8 -34 -8 -16 0 -32 -5 -35 -11 -4 -6 -13 -8 -21 -5 -8 3
-17 -1 -20 -9 -4 -8 -10 -13 -15 -10 -4 3 -16 2 -26 -3 -10 -5 -35 -17 -55
-27 -21 -10 -38 -22 -38 -27 0 -5 -4 -7 -9 -3 -5 3 -16 -4 -24 -15 -7 -11 -17
-17 -20 -13 -4 3 -21 -10 -39 -29 -18 -20 -43 -39 -55 -42 -12 -4 -25 -16 -28
-27 -4 -11 -22 -34 -41 -53 -19 -18 -34 -38 -34 -43 0 -9 -10 -23 -50 -70 -5
-7 -10 -19 -10 -28 0 -9 -11 -36 -25 -61 -14 -25 -23 -49 -20 -54 3 -5 1 -11
-5 -15 -5 -3 -10 -19 -10 -36 0 -16 -4 -29 -8 -29 -11 0 -10 -335 1 -346 4 -4
7 -20 7 -35 0 -15 5 -31 10 -34 6 -4 8 -10 5 -15 -6 -9 13 -50 28 -61 5 -3 9
-9 9 -12 0 -19 12 -47 19 -47 5 0 8 -3 7 -7 -3 -16 22 -64 37 -69 8 -3 13 -10
10 -14 -3 -4 13 -26 35 -48 22 -22 40 -45 40 -51 0 -6 6 -11 14 -11 8 0 23
-10 33 -23 30 -37 94 -82 168 -118 39 -19 75 -34 80 -35 6 0 24 -7 40 -15 17
-8 37 -15 45 -14 8 1 21 -3 28 -8 6 -5 43 -9 81 -8 38 1 72 -2 75 -7 6 -10
2851 -10 2862 1 4 4 45 7 91 7 52 0 83 4 83 11 0 6 9 8 20 4 11 -3 25 -3 32 2
23 14 82 32 90 27 4 -3 8 0 8 5 0 6 11 11 25 11 14 0 25 5 25 10 0 6 3 10 8 9
15 -2 52 14 52 22 0 5 6 9 14 9 8 0 21 6 28 12 16 15 47 35 68 45 8 4 24 17
36 30 12 13 25 23 30 23 12 0 124 113 124 124 0 5 11 19 24 31 14 13 22 26 18
29 -3 4 4 13 16 22 12 8 22 22 22 30 0 8 7 17 16 21 8 3 13 12 10 19 -3 8 -1
14 4 14 5 0 14 16 21 35 7 19 17 35 22 35 5 0 7 6 4 13 -2 6 4 29 15 50 11 22
17 41 14 44 -3 3 0 15 6 27 7 11 11 31 9 44 -1 13 2 29 8 35 10 13 13 345 2
362 -3 6 -6 21 -7 35 0 14 -5 34 -11 45 -6 11 -8 26 -6 33 3 6 0 12 -6 12 -6
0 -11 11 -11 25 0 14 -5 25 -10 25 -6 0 -10 3 -9 8 2 15 -14 52 -23 52 -5 0
-6 5 -2 11 3 6 2 14 -3 18 -5 3 -19 27 -31 52 -13 26 -31 54 -42 64 -11 10
-20 22 -20 28 0 14 -199 211 -207 204 -3 -4 -12 2 -20 13 -8 11 -20 20 -28 20
-7 0 -27 11 -43 25 -16 13 -32 22 -36 18 -3 -3 -6 -2 -6 4 0 9 -34 24 -62 27
-3 1 -10 4 -14 9 -4 4 -18 7 -31 7 -12 0 -23 4 -23 9 0 5 -12 12 -26 15 -32 8
-50 25 -49 46 1 8 -5 27 -12 43 -7 15 -11 27 -7 27 4 0 1 6 -5 14 -6 8 -11 18
-9 22 4 15 -13 54 -23 54 -5 0 -9 8 -9 18 0 30 -73 163 -131 239 -43 56 -205
223 -211 217 -3 -2 -13 5 -23 16 -10 11 -23 20 -29 20 -6 0 -21 12 -33 27 -13
14 -23 23 -23 20 0 -3 -42 15 -93 41 -51 26 -100 48 -108 50 -8 2 -15 7 -17
12 -2 5 -10 6 -18 3 -8 -3 -20 -1 -27 5 -6 5 -28 12 -47 16 -19 3 -46 8 -60
12 -14 3 -46 8 -72 11 -27 3 -48 8 -48 12 0 9 -220 8 -226 -1z m156 -370 c22
0 42 -4 45 -8 3 -4 21 -7 40 -5 19 1 35 -2 35 -7 0 -4 13 -8 28 -8 16 0 32 -3
36 -7 3 -4 14 -8 24 -9 9 -2 18 -7 20 -13 2 -5 10 -7 18 -4 8 3 14 0 14 -7 0
-7 7 -10 15 -6 8 3 23 -3 32 -13 19 -19 52 -35 66 -32 4 0 10 -6 13 -14 4 -8
12 -15 19 -15 13 0 131 -115 182 -178 18 -22 35 -51 39 -66 3 -14 9 -26 13
-26 4 0 13 -16 21 -35 8 -19 18 -35 22 -35 5 0 6 -5 2 -11 -6 -10 -1 -25 26
-79 4 -8 5 -25 4 -37 -2 -13 1 -23 6 -23 6 0 10 -24 10 -53 0 -30 3 -57 8 -61
4 -4 8 -30 8 -57 2 -70 2 -69 27 -65 12 2 27 -1 34 -6 7 -6 35 -10 63 -10 27
1 50 -3 50 -7 0 -4 17 -8 37 -9 21 -1 39 -6 41 -12 2 -6 7 -8 11 -6 15 10 103
-27 166 -69 59 -40 202 -195 178 -195 -3 0 3 -11 15 -23 22 -23 40 -68 47
-114 2 -12 7 -28 11 -35 5 -7 7 -34 6 -60 -1 -27 3 -48 8 -48 13 0 13 -37 1
-45 -5 -3 -9 -28 -7 -56 1 -28 -3 -58 -10 -67 -6 -8 -9 -24 -6 -34 2 -10 -1
-18 -7 -18 -6 0 -11 -7 -11 -16 0 -25 -46 -117 -69 -138 -11 -11 -21 -23 -21
-28 0 -12 -82 -98 -93 -98 -5 0 -27 -16 -49 -35 -22 -19 -43 -34 -47 -33 -15
1 -51 -15 -51 -23 0 -5 -3 -8 -7 -7 -10 2 -75 -13 -88 -20 -15 -10 -3066 -9
-3071 0 -3 4 -16 8 -30 8 -13 0 -24 5 -24 10 0 6 -3 10 -7 9 -16 -2 -53 14
-53 22 0 5 -6 9 -14 9 -17 0 -147 130 -141 140 2 4 -4 16 -14 26 -10 11 -17
28 -15 37 1 10 -3 20 -10 23 -7 3 -10 20 -8 45 3 22 -1 46 -7 52 -13 13 -15
67 -2 67 6 0 9 18 9 41 0 22 4 45 10 51 6 6 8 17 5 25 -3 8 -2 18 3 22 5 3 18
23 29 44 11 20 23 37 27 37 4 0 13 12 20 27 7 14 22 31 33 37 11 6 29 20 40
31 25 25 94 59 117 57 10 0 18 3 18 9 0 12 237 12 244 0 6 -10 103 -8 127 3
13 6 16 20 14 67 -1 32 1 59 5 59 5 0 11 24 14 53 9 78 11 92 21 108 5 7 10
19 10 24 2 30 31 98 47 109 10 7 16 15 13 18 -3 3 6 16 20 29 13 13 25 29 25
34 0 14 70 80 93 88 9 4 17 11 17 16 0 10 130 76 170 85 3 1 14 6 25 12 11 6
33 9 50 8 16 -2 34 1 40 5 16 13 125 13 140 1 8 -7 20 -10 27 -7 7 2 29 -1 48
-8 19 -7 45 -11 58 -9 12 2 22 -1 22 -6 0 -6 12 -10 26 -10 26 0 54 20 54 39
0 6 4 11 10 11 5 0 9 3 8 8 -4 14 13 52 23 52 6 0 8 4 4 9 -3 5 -1 12 5 16 5
3 10 15 10 26 0 10 5 19 11 19 5 0 8 4 5 8 -3 5 4 14 14 22 10 8 17 17 15 20
-2 4 11 22 30 40 19 19 35 38 35 43 0 13 66 77 80 77 5 0 10 3 10 8 0 4 17 18
38 32 20 14 39 27 42 31 7 8 44 22 53 21 4 -1 7 2 7 7 0 5 10 12 23 16 12 4
27 9 32 11 6 2 25 7 43 10 17 4 32 10 32 14 0 8 55 20 108 22 17 1 32 5 32 9
0 8 69 17 83 11 4 -2 25 -4 47 -4z"/>
<path d="M2929 3323 c-3 -8 -7 -20 -14 -51 -4 -18 -12 -35 -16 -38 -5 -3 -9
-15 -9 -28 0 -21 -3 -23 -67 -21 -54 1 -71 -2 -80 -16 -7 -10 -10 -24 -7 -32
3 -8 1 -18 -5 -22 -6 -3 -11 -19 -11 -35 0 -16 -5 -32 -11 -35 -6 -4 -8 -13
-5 -20 5 -13 -12 -68 -28 -94 -7 -10 4 -27 40 -60 l49 -47 217 1 218 1 -7 -25
c-3 -14 -10 -31 -15 -38 -5 -7 -7 -16 -4 -21 3 -6 0 -25 -8 -43 -7 -19 -11
-40 -9 -46 3 -7 0 -13 -5 -13 -6 0 -10 -15 -10 -34 0 -19 -4 -41 -8 -48 -5 -7
-9 -20 -9 -28 0 -13 -31 -15 -217 -15 -140 0 -218 4 -218 10 0 5 4 17 9 25 11
17 -55 91 -79 89 -34 -3 -41 1 -33 19 5 9 8 25 8 34 0 22 -64 88 -85 88 -25 0
-30 10 -17 31 10 16 5 25 -33 64 l-44 45 -147 0 c-135 0 -147 -1 -144 -17 1
-10 -1 -22 -4 -28 -14 -21 -32 -85 -26 -94 3 -5 1 -12 -5 -16 -5 -3 -10 -15
-10 -26 0 -10 -4 -19 -9 -19 -5 0 -8 -15 -7 -32 2 -18 -1 -38 -6 -44 -4 -6 -9
-23 -10 -38 -1 -14 -6 -26 -11 -26 -4 0 -6 -4 -3 -8 3 -5 -1 -20 -9 -35 -13
-25 -12 -28 21 -59 19 -18 34 -38 34 -45 0 -10 24 -13 95 -13 52 0 95 -2 95
-5 0 -3 -6 -14 -12 -25 -11 -17 -7 -25 32 -65 28 -29 53 -45 69 -45 23 0 23
-1 7 -19 -17 -19 -16 -21 25 -66 24 -26 48 -44 56 -41 19 8 29 -23 14 -46 -11
-18 -8 -25 25 -57 l37 -38 281 1 c154 1 287 5 294 9 6 5 12 21 12 37 0 16 5
32 11 35 5 4 8 12 6 18 -2 7 -1 19 4 28 6 12 23 15 78 14 75 -2 76 -2 72 52
-1 11 3 24 8 28 6 3 11 15 11 26 0 17 7 19 70 19 56 0 71 3 78 18 5 9 7 23 5
30 -3 6 0 12 5 12 9 0 24 45 27 85 2 22 13 71 22 95 3 8 8 24 9 35 11 63 17
85 25 85 5 0 9 13 9 29 0 17 4 32 10 36 5 3 7 12 4 19 -3 8 -1 17 5 21 6 3 11
19 11 35 0 16 4 31 9 35 5 3 8 19 6 35 -2 16 0 32 6 35 5 4 9 19 9 35 0 16 4
31 9 34 27 17 -39 102 -85 111 -11 2 -20 4 -22 4 -2 1 3 10 11 21 13 19 11 24
-24 60 -30 31 -44 38 -65 34 -22 -4 -25 -2 -19 13 16 39 13 83 -7 83 -6 0 -20
10 -32 23 -21 22 -26 22 -233 23 -117 0 -214 -1 -214 -3z"/>
<path d="M1722 2908 c-2 -10 -8 -18 -12 -18 -5 0 -7 -8 -6 -17 2 -9 -3 -28
-10 -41 -7 -14 -10 -31 -7 -38 3 -8 1 -14 -5 -14 -9 0 -20 -39 -24 -80 0 -8
-5 -21 -10 -27 -6 -7 -8 -19 -5 -27 3 -8 1 -16 -5 -18 -6 -2 -11 -21 -10 -41
1 -20 -3 -37 -8 -37 -6 0 -10 -14 -10 -30 0 -22 10 -42 34 -65 l33 -35 147 0
146 0 10 26 c6 14 8 29 5 34 -3 5 -1 11 5 15 5 3 10 19 10 36 0 16 5 29 11 29
6 0 8 7 5 15 -3 9 -2 23 3 33 26 51 49 140 43 165 -1 4 3 7 9 7 22 0 5 74 -25
105 l-30 30 -145 5 c-131 5 -145 3 -149 -12z"/>
</g>
</svg>
